<svg width="50" height="10" viewBox="0 0 50 10" fill="none" xmlns="http://www.w3.org/2000/svg">
<path fill-rule="evenodd" clip-rule="evenodd" d="M36 4.50059C36 4.36798 36.0527 4.2408 36.1464 4.14704C36.2402 4.05327 36.3674 4.00059 36.5 4.00059L48.293 4.00059L45.146 0.854589C45.0521 0.760703 44.9994 0.633364 44.9994 0.500589C44.9994 0.367814 45.0521 0.240475 45.146 0.146589C45.2399 0.0527025 45.3672 -4.23711e-05 45.5 -4.23769e-05C45.6328 -4.23827e-05 45.7601 0.0527025 45.854 0.146589L49.854 4.14659C49.9006 4.19303 49.9375 4.24821 49.9627 4.30896C49.9879 4.3697 50.0009 4.43482 50.0009 4.50059C50.0009 4.56636 49.9879 4.63148 49.9627 4.69222C49.9375 4.75297 49.9006 4.80814 49.854 4.85459L45.854 8.85459C45.7601 8.94848 45.6328 9.00122 45.5 9.00122C45.3672 9.00122 45.2399 8.94848 45.146 8.85459C45.0521 8.7607 44.9994 8.63336 44.9994 8.50059C44.9994 8.36781 45.0521 8.24048 45.146 8.14659L48.293 5.00059L36.5 5.00059C36.3674 5.00059 36.2402 4.94791 36.1464 4.85414C36.0527 4.76037 36 4.6332 36 4.50059Z" fill="white"/>
<path fill-rule="evenodd" clip-rule="evenodd" d="M14.001 5.00112C14.001 5.13373 13.9483 5.26091 13.8545 5.35467C13.7608 5.44844 13.6336 5.50112 13.501 5.50112L1.70798 5.50112L4.85498 8.64712C4.94886 8.74101 5.00161 8.86834 5.00161 9.00112C5.00161 9.1339 4.94886 9.26123 4.85498 9.35512C4.76109 9.44901 4.63375 9.50175 4.50098 9.50175C4.3682 9.50175 4.24086 9.44901 4.14698 9.35512L0.146977 5.35512C0.100414 5.30867 0.063471 5.2535 0.0382645 5.19275C0.0130579 5.13201 8.31693e-05 5.06689 8.31664e-05 5.00112C8.31635e-05 4.93535 0.0130579 4.87023 0.0382645 4.80949C0.063471 4.74874 0.100414 4.69357 0.146977 4.64712L4.14698 0.64712C4.24086 0.553234 4.3682 0.500489 4.50098 0.500489C4.63375 0.500489 4.76109 0.553234 4.85498 0.64712C4.94886 0.741007 5.00161 0.868344 5.00161 1.00112C5.00161 1.1339 4.94886 1.26123 4.85498 1.35512L1.70798 4.50112L13.501 4.50112C13.6336 4.50112 13.7608 4.5538 13.8545 4.64757C13.9483 4.74133 14.001 4.86851 14.001 5.00112Z" fill="white"/>
</svg>
