<svg width="67" height="19" viewBox="0 0 67 19" fill="none" xmlns="http://www.w3.org/2000/svg">
<path d="M1.79688 3.625H3.25781L6.98438 12.8984L10.7031 3.625H12.1719L7.54688 15H6.40625L1.79688 3.625ZM1.32031 3.625H2.60938L2.82031 10.5625V15H1.32031V3.625ZM11.3516 3.625H12.6406V15H11.1406V10.5625L11.3516 3.625ZM14.6875 10.8672V10.6875C14.6875 10.0781 14.776 9.51302 14.9531 8.99219C15.1302 8.46615 15.3854 8.01042 15.7188 7.625C16.0521 7.23438 16.4557 6.93229 16.9297 6.71875C17.4036 6.5 17.9349 6.39062 18.5234 6.39062C19.1172 6.39062 19.651 6.5 20.125 6.71875C20.6042 6.93229 21.0104 7.23438 21.3438 7.625C21.6823 8.01042 21.9401 8.46615 22.1172 8.99219C22.2943 9.51302 22.3828 10.0781 22.3828 10.6875V10.8672C22.3828 11.4766 22.2943 12.0417 22.1172 12.5625C21.9401 13.0833 21.6823 13.5391 21.3438 13.9297C21.0104 14.3151 20.6068 14.6172 20.1328 14.8359C19.6641 15.0495 19.1328 15.1562 18.5391 15.1562C17.9453 15.1562 17.4115 15.0495 16.9375 14.8359C16.4635 14.6172 16.0573 14.3151 15.7188 13.9297C15.3854 13.5391 15.1302 13.0833 14.9531 12.5625C14.776 12.0417 14.6875 11.4766 14.6875 10.8672ZM16.1328 10.6875V10.8672C16.1328 11.2891 16.1823 11.6875 16.2812 12.0625C16.3802 12.4323 16.5286 12.7604 16.7266 13.0469C16.9297 13.3333 17.1823 13.5599 17.4844 13.7266C17.7865 13.888 18.138 13.9688 18.5391 13.9688C18.9349 13.9688 19.2812 13.888 19.5781 13.7266C19.8802 13.5599 20.1302 13.3333 20.3281 13.0469C20.526 12.7604 20.6745 12.4323 20.7734 12.0625C20.8776 11.6875 20.9297 11.2891 20.9297 10.8672V10.6875C20.9297 10.2708 20.8776 9.8776 20.7734 9.50781C20.6745 9.13281 20.5234 8.80208 20.3203 8.51562C20.1224 8.22396 19.8724 7.99479 19.5703 7.82812C19.2734 7.66146 18.9245 7.57812 18.5234 7.57812C18.1276 7.57812 17.7786 7.66146 17.4766 7.82812C17.1797 7.99479 16.9297 8.22396 16.7266 8.51562C16.5286 8.80208 16.3802 9.13281 16.2812 9.50781C16.1823 9.8776 16.1328 10.2708 16.1328 10.6875ZM25.6406 7.875V15H24.1953V6.54688H25.6016L25.6406 7.875ZM28.2812 6.5L28.2734 7.84375C28.1536 7.81771 28.0391 7.80208 27.9297 7.79688C27.8255 7.78646 27.7057 7.78125 27.5703 7.78125C27.237 7.78125 26.9427 7.83333 26.6875 7.9375C26.4323 8.04167 26.2161 8.1875 26.0391 8.375C25.862 8.5625 25.7214 8.78646 25.6172 9.04688C25.5182 9.30208 25.4531 9.58333 25.4219 9.89062L25.0156 10.125C25.0156 9.61458 25.0651 9.13542 25.1641 8.6875C25.2682 8.23958 25.4271 7.84375 25.6406 7.5C25.8542 7.15104 26.125 6.88021 26.4531 6.6875C26.7865 6.48958 27.1823 6.39062 27.6406 6.39062C27.7448 6.39062 27.8646 6.40365 28 6.42969C28.1354 6.45052 28.2292 6.47396 28.2812 6.5ZM32.9688 15.1562C32.3802 15.1562 31.8464 15.0573 31.3672 14.8594C30.8932 14.6562 30.4844 14.3724 30.1406 14.0078C29.8021 13.6432 29.5417 13.2109 29.3594 12.7109C29.1771 12.2109 29.0859 11.6641 29.0859 11.0703V10.7422C29.0859 10.0547 29.1875 9.44271 29.3906 8.90625C29.5938 8.36458 29.8698 7.90625 30.2188 7.53125C30.5677 7.15625 30.9635 6.8724 31.4062 6.67969C31.849 6.48698 32.3073 6.39062 32.7812 6.39062C33.3854 6.39062 33.9062 6.49479 34.3438 6.70312C34.7865 6.91146 35.1484 7.20312 35.4297 7.57812C35.7109 7.94792 35.9193 8.38542 36.0547 8.89062C36.1901 9.39062 36.2578 9.9375 36.2578 10.5312V11.1797H29.9453V10H34.8125V9.89062C34.7917 9.51562 34.7135 9.15104 34.5781 8.79688C34.4479 8.44271 34.2396 8.15104 33.9531 7.92188C33.6667 7.69271 33.276 7.57812 32.7812 7.57812C32.4531 7.57812 32.151 7.64844 31.875 7.78906C31.599 7.92448 31.362 8.1276 31.1641 8.39844C30.9661 8.66927 30.8125 9 30.7031 9.39062C30.5938 9.78125 30.5391 10.2318 30.5391 10.7422V11.0703C30.5391 11.4714 30.5938 11.849 30.7031 12.2031C30.8177 12.5521 30.9818 12.8594 31.1953 13.125C31.4141 13.3906 31.6771 13.599 31.9844 13.75C32.2969 13.901 32.651 13.9766 33.0469 13.9766C33.5573 13.9766 33.9896 13.8724 34.3438 13.6641C34.6979 13.4557 35.0078 13.1771 35.2734 12.8281L36.1484 13.5234C35.9661 13.7995 35.7344 14.0625 35.4531 14.3125C35.1719 14.5625 34.8255 14.7656 34.4141 14.9219C34.0078 15.0781 33.526 15.1562 32.9688 15.1562Z" fill="white"/>
<path fill-rule="evenodd" clip-rule="evenodd" d="M52 11C52 10.8674 52.0527 10.7402 52.1464 10.6465C52.2402 10.5527 52.3674 10.5 52.5 10.5L64.293 10.5L61.146 7.35401C61.0521 7.26012 60.9994 7.13278 60.9994 7.00001C60.9994 6.86723 61.0521 6.7399 61.146 6.64601C61.2399 6.55212 61.3672 6.49938 61.5 6.49938C61.6328 6.49938 61.7601 6.55212 61.854 6.64601L65.854 10.646C65.9006 10.6925 65.9375 10.7476 65.9627 10.8084C65.9879 10.8691 66.0009 10.9342 66.0009 11C66.0009 11.0658 65.9879 11.1309 65.9627 11.1916C65.9375 11.2524 65.9006 11.3076 65.854 11.354L61.854 15.354C61.7601 15.4479 61.6328 15.5006 61.5 15.5006C61.3672 15.5006 61.2399 15.4479 61.146 15.354C61.0521 15.2601 60.9994 15.1328 60.9994 15C60.9994 14.8672 61.0521 14.7399 61.146 14.646L64.293 11.5L52.5 11.5C52.3674 11.5 52.2402 11.4473 52.1464 11.3536C52.0527 11.2598 52 11.1326 52 11Z" fill="white"/>
</svg>
