<svg width="67" height="12" viewBox="0 0 67 12" fill="none" xmlns="http://www.w3.org/2000/svg">
<path d="M5.58333 0L6.83687 3.85799L10.8934 3.85799L7.6116 6.24236L8.86513 10.1003L5.58333 7.71598L2.30153 10.1003L3.55507 6.24236L0.273268 3.85799L4.3298 3.85799L5.58333 0Z" fill="white"/>
<path d="M19.5418 0L20.7954 3.85799L24.8519 3.85799L21.5701 6.24236L22.8236 10.1003L19.5418 7.71598L16.26 10.1003L17.5136 6.24236L14.2318 3.85799L18.2883 3.85799L19.5418 0Z" fill="white"/>
<path d="M33.4998 0L34.7534 3.85799L38.8099 3.85799L35.5281 6.24236L36.7816 10.1003L33.4998 7.71598L30.218 10.1003L31.4716 6.24236L28.1898 3.85799L32.2463 3.85799L33.4998 0Z" fill="white"/>
<path d="M47.4583 0L48.7119 3.85799L52.7684 3.85799L49.4866 6.24236L50.7401 10.1003L47.4583 7.71598L44.1765 10.1003L45.4301 6.24236L42.1483 3.85799L46.2048 3.85799L47.4583 0Z" fill="white"/>
<path d="M61.4168 0L62.6704 3.85799L66.7269 3.85799L63.4451 6.24236L64.6986 10.1003L61.4168 7.71598L58.135 10.1003L59.3886 6.24236L56.1068 3.85799L60.1633 3.85799L61.4168 0Z" fill="white"/>
</svg>
