<svg width="71" height="37" viewBox="0 0 71 37" fill="none" xmlns="http://www.w3.org/2000/svg">
<path d="M0.6875 31.0625C0.6875 29.5625 1.22917 28.3125 2.3125 27.3125C3.39583 26.2917 4.79167 25.7812 6.5 25.7812C8.22917 25.7812 9.625 26.2917 10.6875 27.3125C11.7708 28.3125 12.3125 29.5625 12.3125 31.0625C12.3125 32.5625 11.7708 33.8229 10.6875 34.8438C9.625 35.8438 8.22917 36.3438 6.5 36.3438C4.79167 36.3438 3.39583 35.8438 2.3125 34.8438C1.22917 33.8229 0.6875 32.5625 0.6875 31.0625ZM0.6875 6.125C0.6875 4.625 1.22917 3.375 2.3125 2.375C3.39583 1.35417 4.79167 0.84375 6.5 0.84375C8.22917 0.84375 9.625 1.35417 10.6875 2.375C11.7708 3.375 12.3125 4.625 12.3125 6.125C12.3125 7.625 11.7708 8.88542 10.6875 9.90625C9.625 10.9062 8.22917 11.4062 6.5 11.4062C4.79167 11.4062 3.39583 10.9062 2.3125 9.90625C1.22917 8.88542 0.6875 7.625 0.6875 6.125ZM19.9375 31.0625C19.9375 29.5625 20.4792 28.3125 21.5625 27.3125C22.6458 26.2917 24.0417 25.7812 25.75 25.7812C27.4792 25.7812 28.875 26.2917 29.9375 27.3125C31.0208 28.3125 31.5625 29.5625 31.5625 31.0625C31.5625 32.5625 31.0208 33.8229 29.9375 34.8438C28.875 35.8438 27.4792 36.3438 25.75 36.3438C24.0417 36.3438 22.6458 35.8438 21.5625 34.8438C20.4792 33.8229 19.9375 32.5625 19.9375 31.0625ZM19.9375 6.125C19.9375 4.625 20.4792 3.375 21.5625 2.375C22.6458 1.35417 24.0417 0.84375 25.75 0.84375C27.4792 0.84375 28.875 1.35417 29.9375 2.375C31.0208 3.375 31.5625 4.625 31.5625 6.125C31.5625 7.625 31.0208 8.88542 29.9375 9.90625C28.875 10.9062 27.4792 11.4062 25.75 11.4062C24.0417 11.4062 22.6458 10.9062 21.5625 9.90625C20.4792 8.88542 19.9375 7.625 19.9375 6.125ZM39.1875 31.0625C39.1875 29.5625 39.7292 28.3125 40.8125 27.3125C41.8958 26.2917 43.2917 25.7812 45 25.7812C46.7292 25.7812 48.125 26.2917 49.1875 27.3125C50.2708 28.3125 50.8125 29.5625 50.8125 31.0625C50.8125 32.5625 50.2708 33.8229 49.1875 34.8438C48.125 35.8438 46.7292 36.3438 45 36.3438C43.2917 36.3438 41.8958 35.8438 40.8125 34.8438C39.7292 33.8229 39.1875 32.5625 39.1875 31.0625ZM39.1875 6.125C39.1875 4.625 39.7292 3.375 40.8125 2.375C41.8958 1.35417 43.2917 0.84375 45 0.84375C46.7292 0.84375 48.125 1.35417 49.1875 2.375C50.2708 3.375 50.8125 4.625 50.8125 6.125C50.8125 7.625 50.2708 8.88542 49.1875 9.90625C48.125 10.9062 46.7292 11.4062 45 11.4062C43.2917 11.4062 41.8958 10.9062 40.8125 9.90625C39.7292 8.88542 39.1875 7.625 39.1875 6.125ZM58.4375 31.0625C58.4375 29.5625 58.9792 28.3125 60.0625 27.3125C61.1458 26.2917 62.5417 25.7812 64.25 25.7812C65.9792 25.7812 67.375 26.2917 68.4375 27.3125C69.5208 28.3125 70.0625 29.5625 70.0625 31.0625C70.0625 32.5625 69.5208 33.8229 68.4375 34.8438C67.375 35.8438 65.9792 36.3438 64.25 36.3438C62.5417 36.3438 61.1458 35.8438 60.0625 34.8438C58.9792 33.8229 58.4375 32.5625 58.4375 31.0625ZM58.4375 6.125C58.4375 4.625 58.9792 3.375 60.0625 2.375C61.1458 1.35417 62.5417 0.84375 64.25 0.84375C65.9792 0.84375 67.375 1.35417 68.4375 2.375C69.5208 3.375 70.0625 4.625 70.0625 6.125C70.0625 7.625 69.5208 8.88542 68.4375 9.90625C67.375 10.9062 65.9792 11.4062 64.25 11.4062C62.5417 11.4062 61.1458 10.9062 60.0625 9.90625C58.9792 8.88542 58.4375 7.625 58.4375 6.125Z" fill="white"/>
</svg>
